<svg width="22" height="20" viewBox="0 0 22 20" fill="none" xmlns="http://www.w3.org/2000/svg">
<path d="M7.17316 1.68509C9.00043 1.0039 11.0111 0.82567 12.9509 1.17294C14.8907 1.5202 16.6725 2.37737 18.0711 3.63604C19.4696 4.89471 20.422 6.49836 20.8078 8.24419C21.1937 9.99002 20.9957 11.7996 20.2388 13.4442C19.4819 15.0887 18.2002 16.4943 16.5557 17.4832C14.9112 18.4722 12.9778 19 11 19C9.34778 19 7.78778 18.64 6.41444 18L1 19L2.11111 14.127C1.4 12.891 1 11.488 1 10C1 8.21997 1.58649 6.47991 2.6853 4.99987" stroke="#F5EFFF" stroke-width="1.5552" stroke-linecap="round" stroke-linejoin="round"/>
</svg>
