<svg width="21" height="18" viewBox="0 0 21 18" fill="none" xmlns="http://www.w3.org/2000/svg">
<path d="M10.5002 2.85238L9.99792 3.35249C10.063 3.4223 10.141 3.47783 10.2273 3.51575C10.3136 3.55368 10.4065 3.57323 10.5002 3.57323C10.594 3.57323 10.6868 3.55368 10.7732 3.51575C10.8595 3.47783 10.9375 3.4223 11.0026 3.35249L10.5002 2.85238ZM5.85001 13.3547C5.70692 13.2331 5.52293 13.1751 5.33854 13.1937C5.15414 13.2123 4.98444 13.3058 4.86675 13.4538C4.74907 13.6017 4.69305 13.7919 4.71102 13.9826C4.72899 14.1732 4.81947 14.3487 4.96257 14.4704L5.85001 13.3547ZM1.51606 10.4608C1.56003 10.5439 1.61941 10.6173 1.6908 10.6766C1.76219 10.736 1.8442 10.7803 1.93213 10.8069C2.02007 10.8335 2.11221 10.8419 2.20331 10.8317C2.2944 10.8215 2.38265 10.7929 2.46303 10.7474C2.54342 10.7019 2.61435 10.6406 2.67178 10.5667C2.72921 10.4929 2.77202 10.4082 2.79776 10.3172C2.8235 10.2263 2.83167 10.1311 2.82181 10.0369C2.81194 9.9427 2.78422 9.85145 2.74024 9.76835L1.51606 10.4608ZM1.89559 6.35027C1.89559 4.2825 3.02582 2.5475 4.56908 1.81753C6.06861 1.10872 8.0835 1.29626 9.99792 3.35249L11.0026 2.35323C8.7328 -0.0867438 6.09466 -0.489719 3.98862 0.505696C1.92908 1.47995 0.500244 3.742 0.500244 6.35027H1.89559ZM7.24164 16.3169C7.71885 16.7055 8.23047 17.119 8.74861 17.4326C9.26675 17.7461 9.85838 18 10.5002 18V16.5574C10.2119 16.5574 9.87326 16.442 9.4528 16.1871C9.0314 15.9332 8.59503 15.5831 8.10573 15.184L7.24164 16.3169ZM13.7588 16.3169C15.0854 15.235 16.7821 13.9962 18.1123 12.4468C19.4677 10.8696 20.5002 8.91431 20.5002 6.35027H19.1049C19.1049 8.46421 18.2677 10.0925 17.0695 11.4889C15.8463 12.9123 14.3049 14.0347 12.8947 15.184L13.7588 16.3169ZM20.5002 6.35027C20.5002 3.742 19.0723 1.47995 17.0119 0.505696C14.9058 -0.489719 12.2695 -0.0867438 9.99792 2.35226L11.0026 3.35249C12.917 1.29722 14.9319 1.10872 16.4314 1.81753C17.9747 2.5475 19.1049 4.28154 19.1049 6.35027H20.5002ZM12.8947 15.184C12.4054 15.5831 11.9691 15.9332 11.5477 16.1871C11.1263 16.441 10.7886 16.5574 10.5002 16.5574V18C11.1421 18 11.7337 17.7451 12.2519 17.4326C12.7709 17.119 13.2816 16.7055 13.7588 16.3169L12.8947 15.184ZM8.10573 15.184C7.36526 14.581 6.6128 14.0039 5.85001 13.3547L4.96257 14.4704C5.73466 15.1272 6.5514 15.7543 7.24164 16.3169L8.10573 15.184ZM2.74024 9.76835C2.1798 8.7224 1.88894 7.54598 1.89559 6.35027H0.500244C0.500244 7.92563 0.890941 9.27881 1.51606 10.4608L2.74024 9.76835Z" fill="#F5EFFF"/>
<path d="M10.5 17.9997V16.5571C10.2116 16.5571 9.87395 16.4407 9.45256 16.1868C9.03116 15.9329 8.59488 15.5828 8.10558 15.1837C6.69535 14.0344 5.15396 12.912 3.9307 11.4886C2.73256 10.0922 1.89535 8.46391 1.89535 6.34998H0.500002C0.500002 8.91401 1.53256 10.8693 2.88791 12.4465C4.21814 13.9959 5.91489 15.2347 7.2414 16.3166C7.71861 16.7052 8.2293 17.1187 8.74837 17.4323C9.26651 17.7448 9.85814 17.9997 10.5 17.9997Z" fill="#F5EFFF"/>
<path d="M17 13L10.5 17.5L4 13L1 7L2.5 2.5L6 0.5L9.5 2L10.5 2.5L12 2L15 0.5L19 2.5L20 7L17 13Z" fill="#F5EFFF"/>
</svg>
