<svg width="17" height="20" viewBox="0 0 17 20" fill="none" xmlns="http://www.w3.org/2000/svg">
<path d="M10.8954 4.5L5.89542 8M10.8954 15.5L9.91275 14.8121M5.89542 12L6.77 12.6122" stroke="#F5EFFF" stroke-width="1.5" stroke-linecap="round"/>
<path d="M15.8954 16.5C15.8954 17.163 15.632 17.7989 15.1632 18.2678C14.6944 18.7366 14.0585 19 13.3954 19C12.7324 19 12.0965 18.7366 11.6277 18.2678C11.1588 17.7989 10.8954 17.163 10.8954 16.5C10.8954 15.837 11.1588 15.2011 11.6277 14.7322C12.0965 14.2634 12.7324 14 13.3954 14C14.0585 14 14.6944 14.2634 15.1632 14.7322C15.632 15.2011 15.8954 15.837 15.8954 16.5ZM15.8954 3.5C15.8954 4.16304 15.632 4.79893 15.1632 5.26777C14.6944 5.73661 14.0585 6 13.3954 6C12.7324 6 12.0965 5.73661 11.6277 5.26777C11.1588 4.79893 10.8954 4.16304 10.8954 3.5C10.8954 2.83696 11.1588 2.20107 11.6277 1.73223C12.0965 1.26339 12.7324 1 13.3954 1C14.0585 1 14.6944 1.26339 15.1632 1.73223C15.632 2.20107 15.8954 2.83696 15.8954 3.5Z" stroke="#F5EFFF" stroke-width="1.5"/>
<path d="M5.26777 11.7678C5.73661 11.2989 6 10.663 6 10C6 9.33696 5.73661 8.70107 5.26777 8.23223C4.79893 7.76339 4.16304 7.5 3.5 7.5C2.83696 7.5 2.20107 7.76339 1.73223 8.23223C1.26339 8.70107 1 9.33696 1 10C1 10.663 1.26339 11.2989 1.73223 11.7678C2.20107 12.2366 2.83696 12.5 3.5 12.5C4.16304 12.5 4.79893 12.2366 5.26777 11.7678Z" stroke="#F5EFFF" stroke-width="1.5"/>
</svg>
