<svg width="20" height="18" viewBox="0 0 20 18" fill="none" xmlns="http://www.w3.org/2000/svg">
<path d="M10 2.85238L9.49767 3.35249C9.56276 3.4223 9.64078 3.47783 9.72709 3.51575C9.8134 3.55368 9.90622 3.57323 10 3.57323C10.0938 3.57323 10.1866 3.55368 10.2729 3.51575C10.3592 3.47783 10.4372 3.4223 10.5023 3.35249L10 2.85238ZM5.34977 13.3547C5.20667 13.2331 5.02269 13.1751 4.8383 13.1937C4.6539 13.2123 4.48419 13.3058 4.36651 13.4538C4.24883 13.6017 4.19281 13.7919 4.21078 13.9826C4.22875 14.1732 4.31923 14.3487 4.46233 14.4704L5.34977 13.3547ZM1.01581 10.4608C1.05979 10.5439 1.11917 10.6173 1.19056 10.6766C1.26195 10.736 1.34396 10.7803 1.43189 10.8069C1.51983 10.8335 1.61197 10.8419 1.70306 10.8317C1.79415 10.8215 1.88241 10.7929 1.96279 10.7474C2.04317 10.7019 2.1141 10.6406 2.17154 10.5667C2.22897 10.4929 2.27178 10.4082 2.29752 10.3172C2.32326 10.2263 2.33143 10.1311 2.32156 10.0369C2.31169 9.9427 2.28398 9.85145 2.24 9.76835L1.01581 10.4608ZM1.39535 6.35027C1.39535 4.2825 2.52558 2.5475 4.06884 1.81753C5.56837 1.10872 7.58326 1.29626 9.49767 3.35249L10.5023 2.35323C8.23256 -0.086744 5.59442 -0.489719 3.48837 0.505696C1.42884 1.47995 0 3.742 0 6.35027H1.39535ZM6.74139 16.3169C7.2186 16.7055 7.73023 17.119 8.24837 17.4326C8.76651 17.7461 9.35814 18 10 18V16.5574C9.71163 16.5574 9.37302 16.442 8.95256 16.1871C8.53116 15.9332 8.09488 15.5831 7.60558 15.184L6.74139 16.3169ZM13.2586 16.3169C14.5851 15.235 16.2819 13.9962 17.6121 12.4468C18.9674 10.8696 20 8.91431 20 6.35027H18.6047C18.6047 8.46421 17.7674 10.0925 16.5693 11.4889C15.346 12.9123 13.8047 14.0347 12.3944 15.184L13.2586 16.3169ZM20 6.35027C20 3.742 18.5721 1.47995 16.5116 0.505696C14.4056 -0.489719 11.7693 -0.086744 9.49767 2.35226L10.5023 3.35249C12.4167 1.29722 14.4316 1.10872 15.9312 1.81753C17.4744 2.5475 18.6047 4.28154 18.6047 6.35027H20ZM12.3944 15.184C11.9051 15.5831 11.4688 15.9332 11.0474 16.1871C10.626 16.441 10.2884 16.5574 10 16.5574V18C10.6419 18 11.2335 17.7451 11.7516 17.4326C12.2707 17.119 12.7814 16.7055 13.2586 16.3169L12.3944 15.184ZM7.60558 15.184C6.86512 14.581 6.11256 14.0039 5.34977 13.3547L4.46233 14.4704C5.23442 15.1272 6.05116 15.7543 6.74139 16.3169L7.60558 15.184ZM2.24 9.76931C1.67956 8.72336 1.38869 7.54598 1.39535 6.35027H0C0 7.92563 0.390698 9.27881 1.01581 10.4608L2.24 9.76931Z" fill="#F5EFFF"/>
</svg>
