<svg width="20" height="20" viewBox="0 0 20 20" fill="none" xmlns="http://www.w3.org/2000/svg">
<path d="M4.17645 5.2354H3.11763C2.556 5.2354 2.01737 5.4585 1.62024 5.85564C1.22311 6.25277 1 6.7914 1 7.35303V12.1177M3.11763 19H12.647C13.2086 19 13.7472 18.7769 14.1444 18.3798C14.5415 17.9826 14.7646 17.444 14.7646 16.8824V15.8236M13.7058 3.11775L16.8823 6.2942M18.3487 4.79597C18.7657 4.37896 19 3.81337 19 3.22363C19 2.63389 18.7657 2.0683 18.3487 1.65129C17.9317 1.23427 17.3661 1 16.7764 1C16.1866 1 15.621 1.23427 15.204 1.65129L6.29408 10.5295V13.7059H9.47054L18.3487 4.79597Z" stroke="#F5EFFF" stroke-width="1.5" stroke-linecap="round" stroke-linejoin="round"/>
</svg>
